<mxfile host="app.diagrams.net" agent="Mozilla/5.0 (Windows NT 10.0; Win64; x64) AppleWebKit/537.36 (KHTML, like Gecko) Chrome/134.0.0.0 Safari/537.36" version="26.1.0">
  <diagram name="Page-1" id="eq1HaJtdR-BkM6LRjPgf">
    <mxGraphModel dx="1235" dy="671" grid="1" gridSize="10" guides="1" tooltips="1" connect="1" arrows="1" fold="1" page="1" pageScale="1" pageWidth="850" pageHeight="1100" math="0" shadow="0">
      <root>
        <mxCell id="0" />
        <mxCell id="1" parent="0" />
        <mxCell id="qJxEZ1VBeOfUjX2ZMKRO-3" value="" style="group" vertex="1" connectable="0" parent="1">
          <mxGeometry x="277.5" y="130" width="210" height="120" as="geometry" />
        </mxCell>
        <mxCell id="qJxEZ1VBeOfUjX2ZMKRO-1" value="" style="rounded=1;whiteSpace=wrap;html=1;fillColor=#d5e8d4;strokeColor=#82b366;align=center;" vertex="1" parent="qJxEZ1VBeOfUjX2ZMKRO-3">
          <mxGeometry width="210" height="120" as="geometry" />
        </mxCell>
        <mxCell id="qJxEZ1VBeOfUjX2ZMKRO-2" value="" style="rounded=1;whiteSpace=wrap;html=1;" vertex="1" parent="qJxEZ1VBeOfUjX2ZMKRO-3">
          <mxGeometry x="35" y="50" width="140" height="70" as="geometry" />
        </mxCell>
        <mxCell id="qJxEZ1VBeOfUjX2ZMKRO-6" value="&lt;font style=&quot;font-size: 20px;&quot;&gt;View/Activity&lt;/font&gt;" style="text;html=1;align=center;verticalAlign=middle;whiteSpace=wrap;rounded=0;" vertex="1" parent="qJxEZ1VBeOfUjX2ZMKRO-3">
          <mxGeometry x="50" y="10" width="110" height="30" as="geometry" />
        </mxCell>
        <mxCell id="qJxEZ1VBeOfUjX2ZMKRO-7" value="UI" style="text;html=1;align=center;verticalAlign=middle;whiteSpace=wrap;rounded=0;" vertex="1" parent="qJxEZ1VBeOfUjX2ZMKRO-3">
          <mxGeometry x="75" y="45" width="60" height="30" as="geometry" />
        </mxCell>
        <mxCell id="qJxEZ1VBeOfUjX2ZMKRO-8" value="" style="rounded=1;whiteSpace=wrap;html=1;" vertex="1" parent="qJxEZ1VBeOfUjX2ZMKRO-3">
          <mxGeometry x="35" y="80" width="70" height="40" as="geometry" />
        </mxCell>
        <mxCell id="qJxEZ1VBeOfUjX2ZMKRO-9" value="" style="rounded=1;whiteSpace=wrap;html=1;" vertex="1" parent="qJxEZ1VBeOfUjX2ZMKRO-3">
          <mxGeometry x="105" y="80" width="70" height="40" as="geometry" />
        </mxCell>
        <mxCell id="qJxEZ1VBeOfUjX2ZMKRO-10" value="ListView&lt;span style=&quot;color: rgba(0, 0, 0, 0); font-family: monospace; font-size: 0px; text-align: start; text-wrap-mode: nowrap;&quot;&gt;%3CmxGraphModel%3E%3Croot%3E%3CmxCell%20id%3D%220%22%2F%3E%3CmxCell%20id%3D%221%22%20parent%3D%220%22%2F%3E%3CmxCell%20id%3D%222%22%20value%3D%22%22%20style%3D%22rounded%3D1%3BwhiteSpace%3Dwrap%3Bhtml%3D1%3B%22%20vertex%3D%221%22%20parent%3D%221%22%3E%3CmxGeometry%20x%3D%22312.5%22%20y%3D%22220%22%20width%3D%2270%22%20height%3D%2230%22%20as%3D%22geometry%22%2F%3E%3C%2FmxCell%3E%3C%2Froot%3E%3C%2FmxGraphModel%3E&lt;/span&gt;" style="text;html=1;align=center;verticalAlign=middle;whiteSpace=wrap;rounded=0;" vertex="1" parent="qJxEZ1VBeOfUjX2ZMKRO-3">
          <mxGeometry x="40" y="85" width="60" height="30" as="geometry" />
        </mxCell>
        <mxCell id="qJxEZ1VBeOfUjX2ZMKRO-11" value="TaskView" style="text;html=1;align=center;verticalAlign=middle;whiteSpace=wrap;rounded=0;" vertex="1" parent="qJxEZ1VBeOfUjX2ZMKRO-3">
          <mxGeometry x="110" y="85" width="60" height="30" as="geometry" />
        </mxCell>
        <mxCell id="qJxEZ1VBeOfUjX2ZMKRO-13" value="" style="group" vertex="1" connectable="0" parent="1">
          <mxGeometry x="277.5" y="340" width="202.5" height="90" as="geometry" />
        </mxCell>
        <mxCell id="qJxEZ1VBeOfUjX2ZMKRO-4" value="" style="rounded=1;whiteSpace=wrap;html=1;fillColor=#dae8fc;strokeColor=#6c8ebf;" vertex="1" parent="qJxEZ1VBeOfUjX2ZMKRO-13">
          <mxGeometry width="202.5" height="90" as="geometry" />
        </mxCell>
        <mxCell id="qJxEZ1VBeOfUjX2ZMKRO-5" value="Data in view" style="rounded=1;whiteSpace=wrap;html=1;" vertex="1" parent="qJxEZ1VBeOfUjX2ZMKRO-13">
          <mxGeometry x="67.5" y="50" width="75" height="20" as="geometry" />
        </mxCell>
        <mxCell id="qJxEZ1VBeOfUjX2ZMKRO-12" value="&lt;font style=&quot;font-size: 20px;&quot;&gt;ViewModel&lt;/font&gt;" style="text;html=1;align=center;verticalAlign=middle;whiteSpace=wrap;rounded=0;" vertex="1" parent="qJxEZ1VBeOfUjX2ZMKRO-13">
          <mxGeometry x="52.5" width="105" height="30" as="geometry" />
        </mxCell>
        <mxCell id="qJxEZ1VBeOfUjX2ZMKRO-14" value="" style="endArrow=classic;html=1;rounded=0;exitX=0.118;exitY=0.993;exitDx=0;exitDy=0;exitPerimeter=0;entryX=0.119;entryY=0.033;entryDx=0;entryDy=0;entryPerimeter=0;" edge="1" parent="1" source="qJxEZ1VBeOfUjX2ZMKRO-1" target="qJxEZ1VBeOfUjX2ZMKRO-4">
          <mxGeometry width="50" height="50" relative="1" as="geometry">
            <mxPoint x="230" y="340" as="sourcePoint" />
            <mxPoint x="280" y="290" as="targetPoint" />
          </mxGeometry>
        </mxCell>
        <mxCell id="qJxEZ1VBeOfUjX2ZMKRO-15" value="Recieves Data From" style="edgeLabel;html=1;align=center;verticalAlign=middle;resizable=0;points=[];" vertex="1" connectable="0" parent="qJxEZ1VBeOfUjX2ZMKRO-14">
          <mxGeometry x="-0.1491" relative="1" as="geometry">
            <mxPoint as="offset" />
          </mxGeometry>
        </mxCell>
        <mxCell id="qJxEZ1VBeOfUjX2ZMKRO-17" value="" style="endArrow=none;dashed=1;html=1;dashPattern=1 3;strokeWidth=2;rounded=0;exitX=0.877;exitY=0.009;exitDx=0;exitDy=0;exitPerimeter=0;entryX=0.848;entryY=0.993;entryDx=0;entryDy=0;entryPerimeter=0;" edge="1" parent="1" source="qJxEZ1VBeOfUjX2ZMKRO-4" target="qJxEZ1VBeOfUjX2ZMKRO-1">
          <mxGeometry width="50" height="50" relative="1" as="geometry">
            <mxPoint x="480" y="330" as="sourcePoint" />
            <mxPoint x="530" y="280" as="targetPoint" />
          </mxGeometry>
        </mxCell>
        <mxCell id="qJxEZ1VBeOfUjX2ZMKRO-18" value="Exposes Data to" style="edgeLabel;html=1;align=center;verticalAlign=middle;resizable=0;points=[];" vertex="1" connectable="0" parent="qJxEZ1VBeOfUjX2ZMKRO-17">
          <mxGeometry x="-0.0515" relative="1" as="geometry">
            <mxPoint as="offset" />
          </mxGeometry>
        </mxCell>
        <mxCell id="qJxEZ1VBeOfUjX2ZMKRO-20" value="" style="group" vertex="1" connectable="0" parent="1">
          <mxGeometry x="250" y="490" width="256.25" height="140" as="geometry" />
        </mxCell>
        <mxCell id="qJxEZ1VBeOfUjX2ZMKRO-21" value="" style="rounded=1;whiteSpace=wrap;html=1;fillColor=#f8cecc;strokeColor=#b85450;" vertex="1" parent="qJxEZ1VBeOfUjX2ZMKRO-20">
          <mxGeometry x="12.424242424242424" width="243.8257575757576" height="140" as="geometry" />
        </mxCell>
        <mxCell id="qJxEZ1VBeOfUjX2ZMKRO-23" value="&lt;font style=&quot;font-size: 20px;&quot;&gt;Repository&lt;/font&gt;" style="text;html=1;align=center;verticalAlign=middle;whiteSpace=wrap;rounded=0;" vertex="1" parent="qJxEZ1VBeOfUjX2ZMKRO-20">
          <mxGeometry x="65.22727272727272" width="130.45454545454544" height="30" as="geometry" />
        </mxCell>
        <mxCell id="qJxEZ1VBeOfUjX2ZMKRO-24" value="" style="rounded=1;whiteSpace=wrap;html=1;" vertex="1" parent="qJxEZ1VBeOfUjX2ZMKRO-20">
          <mxGeometry x="55.98980891719744" y="80" width="156.68789808917197" height="60" as="geometry" />
        </mxCell>
        <mxCell id="qJxEZ1VBeOfUjX2ZMKRO-25" value="Model" style="text;html=1;align=center;verticalAlign=middle;whiteSpace=wrap;rounded=0;" vertex="1" parent="qJxEZ1VBeOfUjX2ZMKRO-20">
          <mxGeometry x="95.16178343949043" y="80" width="78.34394904458598" height="20" as="geometry" />
        </mxCell>
        <mxCell id="qJxEZ1VBeOfUjX2ZMKRO-26" value="ListModel" style="rounded=1;whiteSpace=wrap;html=1;" vertex="1" parent="qJxEZ1VBeOfUjX2ZMKRO-20">
          <mxGeometry x="55.99" y="110" width="84.01" height="30" as="geometry" />
        </mxCell>
        <mxCell id="qJxEZ1VBeOfUjX2ZMKRO-27" value="" style="rounded=1;whiteSpace=wrap;html=1;" vertex="1" parent="qJxEZ1VBeOfUjX2ZMKRO-20">
          <mxGeometry x="140" y="110" width="72.68" height="30" as="geometry" />
        </mxCell>
        <mxCell id="qJxEZ1VBeOfUjX2ZMKRO-28" value="TaskModel" style="text;html=1;align=center;verticalAlign=middle;whiteSpace=wrap;rounded=0;" vertex="1" parent="qJxEZ1VBeOfUjX2ZMKRO-20">
          <mxGeometry x="142.68" y="110" width="60" height="30" as="geometry" />
        </mxCell>
        <mxCell id="qJxEZ1VBeOfUjX2ZMKRO-29" value="&lt;font style=&quot;font-size: 20px;&quot;&gt;SQLite&lt;/font&gt;" style="fontColor=#0066CC;verticalAlign=top;verticalLabelPosition=bottom;labelPosition=center;align=center;html=1;outlineConnect=0;fillColor=#CCCCCC;strokeColor=#6881B3;gradientColor=none;gradientDirection=north;strokeWidth=2;shape=mxgraph.networks.storage;" vertex="1" parent="1">
          <mxGeometry x="334.33" y="720" width="100" height="100" as="geometry" />
        </mxCell>
        <mxCell id="qJxEZ1VBeOfUjX2ZMKRO-30" value="" style="endArrow=classic;startArrow=classic;html=1;rounded=0;entryX=0.5;entryY=1;entryDx=0;entryDy=0;exitX=0.5;exitY=0;exitDx=0;exitDy=0;exitPerimeter=0;" edge="1" parent="1" source="qJxEZ1VBeOfUjX2ZMKRO-29" target="qJxEZ1VBeOfUjX2ZMKRO-24">
          <mxGeometry width="50" height="50" relative="1" as="geometry">
            <mxPoint x="220" y="730" as="sourcePoint" />
            <mxPoint x="270" y="680" as="targetPoint" />
          </mxGeometry>
        </mxCell>
        <mxCell id="qJxEZ1VBeOfUjX2ZMKRO-31" value="Flow of data request and response&lt;div&gt;with the database&lt;/div&gt;" style="edgeLabel;html=1;align=center;verticalAlign=middle;resizable=0;points=[];" vertex="1" connectable="0" parent="qJxEZ1VBeOfUjX2ZMKRO-30">
          <mxGeometry x="0.0644" y="-2" relative="1" as="geometry">
            <mxPoint as="offset" />
          </mxGeometry>
        </mxCell>
        <mxCell id="qJxEZ1VBeOfUjX2ZMKRO-32" value="" style="endArrow=classic;html=1;rounded=0;entryX=0.193;entryY=0.006;entryDx=0;entryDy=0;entryPerimeter=0;exitX=0.158;exitY=1;exitDx=0;exitDy=0;exitPerimeter=0;" edge="1" parent="1" source="qJxEZ1VBeOfUjX2ZMKRO-4" target="qJxEZ1VBeOfUjX2ZMKRO-21">
          <mxGeometry width="50" height="50" relative="1" as="geometry">
            <mxPoint x="230" y="520" as="sourcePoint" />
            <mxPoint x="280" y="470" as="targetPoint" />
          </mxGeometry>
        </mxCell>
        <mxCell id="qJxEZ1VBeOfUjX2ZMKRO-33" value="Requests data" style="edgeLabel;html=1;align=center;verticalAlign=middle;resizable=0;points=[];" vertex="1" connectable="0" parent="qJxEZ1VBeOfUjX2ZMKRO-32">
          <mxGeometry x="0.0168" relative="1" as="geometry">
            <mxPoint as="offset" />
          </mxGeometry>
        </mxCell>
        <mxCell id="qJxEZ1VBeOfUjX2ZMKRO-34" value="" style="endArrow=classic;html=1;rounded=0;exitX=0.781;exitY=0.014;exitDx=0;exitDy=0;exitPerimeter=0;entryX=0.866;entryY=0.996;entryDx=0;entryDy=0;entryPerimeter=0;" edge="1" parent="1" source="qJxEZ1VBeOfUjX2ZMKRO-21" target="qJxEZ1VBeOfUjX2ZMKRO-4">
          <mxGeometry width="50" height="50" relative="1" as="geometry">
            <mxPoint x="490" y="470" as="sourcePoint" />
            <mxPoint x="540" y="420" as="targetPoint" />
          </mxGeometry>
        </mxCell>
        <mxCell id="qJxEZ1VBeOfUjX2ZMKRO-35" value="Replies to the request" style="edgeLabel;html=1;align=center;verticalAlign=middle;resizable=0;points=[];" vertex="1" connectable="0" parent="qJxEZ1VBeOfUjX2ZMKRO-34">
          <mxGeometry x="0.0622" y="1" relative="1" as="geometry">
            <mxPoint as="offset" />
          </mxGeometry>
        </mxCell>
      </root>
    </mxGraphModel>
  </diagram>
</mxfile>
